<svg width="220" height="82" viewBox="0 0 349 82" fill="none" xmlns="http://www.w3.org/2000/svg">
<g filter="url(#filter0_d_1_27)">
<rect x="5" y="5" width="339" height="72" rx="36" fill="#141414"/>
<rect x="5.05" y="5.05" width="338.9" height="71.9" rx="35.95" stroke="#121212" stroke-width="0.1"/>
</g>
<path d="M95.86 43.02C95.86 41.66 96.1667 40.44 96.78 39.36C97.3933 38.2667 98.2267 37.4133 99.28 36.8C100.347 36.1867 101.527 35.88 102.82 35.88C104.34 35.88 105.667 36.2467 106.8 36.98C107.933 37.7133 108.76 38.7533 109.28 40.1H107.1C106.713 39.26 106.153 38.6133 105.42 38.16C104.7 37.7067 103.833 37.48 102.82 37.48C101.847 37.48 100.973 37.7067 100.2 38.16C99.4267 38.6133 98.82 39.26 98.38 40.1C97.94 40.9267 97.72 41.9 97.72 43.02C97.72 44.1267 97.94 45.1 98.38 45.94C98.82 46.7667 99.4267 47.4067 100.2 47.86C100.973 48.3133 101.847 48.54 102.82 48.54C103.833 48.54 104.7 48.32 105.42 47.88C106.153 47.4267 106.713 46.78 107.1 45.94H109.28C108.76 47.2733 107.933 48.3067 106.8 49.04C105.667 49.76 104.34 50.12 102.82 50.12C101.527 50.12 100.347 49.82 99.28 49.22C98.2267 48.6067 97.3933 47.76 96.78 46.68C96.1667 45.6 95.86 44.38 95.86 43.02ZM116.769 50.18C115.743 50.18 114.809 49.9467 113.969 49.48C113.143 49.0133 112.489 48.3533 112.009 47.5C111.543 46.6333 111.309 45.6333 111.309 44.5C111.309 43.38 111.549 42.3933 112.029 41.54C112.523 40.6733 113.189 40.0133 114.029 39.56C114.869 39.0933 115.809 38.86 116.849 38.86C117.889 38.86 118.829 39.0933 119.669 39.56C120.509 40.0133 121.169 40.6667 121.649 41.52C122.143 42.3733 122.389 43.3667 122.389 44.5C122.389 45.6333 122.136 46.6333 121.629 47.5C121.136 48.3533 120.463 49.0133 119.609 49.48C118.756 49.9467 117.809 50.18 116.769 50.18ZM116.769 48.58C117.423 48.58 118.036 48.4267 118.609 48.12C119.183 47.8133 119.643 47.3533 119.989 46.74C120.349 46.1267 120.529 45.38 120.529 44.5C120.529 43.62 120.356 42.8733 120.009 42.26C119.663 41.6467 119.209 41.1933 118.649 40.9C118.089 40.5933 117.483 40.44 116.829 40.44C116.163 40.44 115.549 40.5933 114.989 40.9C114.443 41.1933 114.003 41.6467 113.669 42.26C113.336 42.8733 113.169 43.62 113.169 44.5C113.169 45.3933 113.329 46.1467 113.649 46.76C113.983 47.3733 114.423 47.8333 114.969 48.14C115.516 48.4333 116.116 48.58 116.769 48.58ZM130.122 38.84C131.456 38.84 132.536 39.2467 133.362 40.06C134.189 40.86 134.602 42.02 134.602 43.54V50H132.802V43.8C132.802 42.7067 132.529 41.8733 131.982 41.3C131.436 40.7133 130.689 40.42 129.742 40.42C128.782 40.42 128.016 40.72 127.442 41.32C126.882 41.92 126.602 42.7933 126.602 43.94V50H124.782V39.04H126.602V40.6C126.962 40.04 127.449 39.6067 128.062 39.3C128.689 38.9933 129.376 38.84 130.122 38.84ZM139.795 40.54V47C139.795 47.5333 139.908 47.9133 140.135 48.14C140.362 48.3533 140.755 48.46 141.315 48.46H142.655V50H141.015C140.002 50 139.242 49.7667 138.735 49.3C138.228 48.8333 137.975 48.0667 137.975 47V40.54H136.555V39.04H137.975V36.28H139.795V39.04H142.655V40.54H139.795ZM145.8 37.26C145.454 37.26 145.16 37.14 144.92 36.9C144.68 36.66 144.56 36.3667 144.56 36.02C144.56 35.6733 144.68 35.38 144.92 35.14C145.16 34.9 145.454 34.78 145.8 34.78C146.134 34.78 146.414 34.9 146.64 35.14C146.88 35.38 147 35.6733 147 36.02C147 36.3667 146.88 36.66 146.64 36.9C146.414 37.14 146.134 37.26 145.8 37.26ZM146.68 39.04V50H144.86V39.04H146.68ZM155.122 38.84C156.456 38.84 157.536 39.2467 158.362 40.06C159.189 40.86 159.602 42.02 159.602 43.54V50H157.802V43.8C157.802 42.7067 157.529 41.8733 156.982 41.3C156.436 40.7133 155.689 40.42 154.742 40.42C153.782 40.42 153.016 40.72 152.442 41.32C151.882 41.92 151.602 42.7933 151.602 43.94V50H149.782V39.04H151.602V40.6C151.962 40.04 152.449 39.6067 153.062 39.3C153.689 38.9933 154.376 38.84 155.122 38.84ZM172.295 39.04V50H170.475V48.38C170.128 48.94 169.642 49.38 169.015 49.7C168.402 50.0067 167.722 50.16 166.975 50.16C166.122 50.16 165.355 49.9867 164.675 49.64C163.995 49.28 163.455 48.7467 163.055 48.04C162.668 47.3333 162.475 46.4733 162.475 45.46V39.04H164.275V45.22C164.275 46.3 164.548 47.1333 165.095 47.72C165.642 48.2933 166.388 48.58 167.335 48.58C168.308 48.58 169.075 48.28 169.635 47.68C170.195 47.08 170.475 46.2067 170.475 45.06V39.04H172.295ZM185.368 44.1C185.368 44.4467 185.348 44.8133 185.308 45.2H176.548C176.615 46.28 176.981 47.1267 177.648 47.74C178.328 48.34 179.148 48.64 180.108 48.64C180.895 48.64 181.548 48.46 182.068 48.1C182.601 47.7267 182.975 47.2333 183.188 46.62H185.148C184.855 47.6733 184.268 48.5333 183.388 49.2C182.508 49.8533 181.415 50.18 180.108 50.18C179.068 50.18 178.135 49.9467 177.308 49.48C176.495 49.0133 175.855 48.3533 175.388 47.5C174.921 46.6333 174.688 45.6333 174.688 44.5C174.688 43.3667 174.915 42.3733 175.368 41.52C175.821 40.6667 176.455 40.0133 177.268 39.56C178.095 39.0933 179.041 38.86 180.108 38.86C181.148 38.86 182.068 39.0867 182.868 39.54C183.668 39.9933 184.281 40.62 184.708 41.42C185.148 42.2067 185.368 43.1 185.368 44.1ZM183.488 43.72C183.488 43.0267 183.335 42.4333 183.028 41.94C182.721 41.4333 182.301 41.0533 181.768 40.8C181.248 40.5333 180.668 40.4 180.028 40.4C179.108 40.4 178.321 40.6933 177.668 41.28C177.028 41.8667 176.661 42.68 176.568 43.72H183.488ZM210.623 36.06L206.583 50H204.543L201.303 38.78L197.943 50L195.923 50.02L192.023 36.06H193.963L197.003 47.88L200.363 36.06H202.403L205.603 47.84L208.663 36.06H210.623ZM213.554 37.26C213.208 37.26 212.914 37.14 212.674 36.9C212.434 36.66 212.314 36.3667 212.314 36.02C212.314 35.6733 212.434 35.38 212.674 35.14C212.914 34.9 213.208 34.78 213.554 34.78C213.888 34.78 214.168 34.9 214.394 35.14C214.634 35.38 214.754 35.6733 214.754 36.02C214.754 36.3667 214.634 36.66 214.394 36.9C214.168 37.14 213.888 37.26 213.554 37.26ZM214.434 39.04V50H212.614V39.04H214.434ZM219.756 40.54V47C219.756 47.5333 219.869 47.9133 220.096 48.14C220.323 48.3533 220.716 48.46 221.276 48.46H222.616V50H220.976C219.963 50 219.203 49.7667 218.696 49.3C218.189 48.8333 217.936 48.0667 217.936 47V40.54H216.516V39.04H217.936V36.28H219.756V39.04H222.616V40.54H219.756ZM230.261 38.84C231.088 38.84 231.835 39.02 232.501 39.38C233.168 39.7267 233.688 40.2533 234.061 40.96C234.448 41.6667 234.641 42.5267 234.641 43.54V50H232.841V43.8C232.841 42.7067 232.568 41.8733 232.021 41.3C231.475 40.7133 230.728 40.42 229.781 40.42C228.821 40.42 228.055 40.72 227.481 41.32C226.921 41.92 226.641 42.7933 226.641 43.94V50H224.821V35.2H226.641V40.6C227.001 40.04 227.495 39.6067 228.121 39.3C228.761 38.9933 229.475 38.84 230.261 38.84ZM253.506 40.1C253.12 39.2867 252.56 38.66 251.826 38.22C251.093 37.7667 250.24 37.54 249.266 37.54C248.293 37.54 247.413 37.7667 246.626 38.22C245.853 38.66 245.24 39.3 244.786 40.14C244.346 40.9667 244.126 41.9267 244.126 43.02C244.126 44.1133 244.346 45.0733 244.786 45.9C245.24 46.7267 245.853 47.3667 246.626 47.82C247.413 48.26 248.293 48.48 249.266 48.48C250.626 48.48 251.746 48.0733 252.626 47.26C253.506 46.4467 254.02 45.3467 254.166 43.96H248.606V42.48H256.106V43.88C256 45.0267 255.64 46.08 255.026 47.04C254.413 47.9867 253.606 48.74 252.606 49.3C251.606 49.8467 250.493 50.12 249.266 50.12C247.973 50.12 246.793 49.82 245.726 49.22C244.66 48.6067 243.813 47.76 243.186 46.68C242.573 45.6 242.266 44.38 242.266 43.02C242.266 41.66 242.573 40.44 243.186 39.36C243.813 38.2667 244.66 37.42 245.726 36.82C246.793 36.2067 247.973 35.9 249.266 35.9C250.746 35.9 252.053 36.2667 253.186 37C254.333 37.7333 255.166 38.7667 255.686 40.1H253.506ZM263.293 50.18C262.266 50.18 261.333 49.9467 260.493 49.48C259.666 49.0133 259.013 48.3533 258.533 47.5C258.066 46.6333 257.833 45.6333 257.833 44.5C257.833 43.38 258.073 42.3933 258.553 41.54C259.046 40.6733 259.713 40.0133 260.553 39.56C261.393 39.0933 262.333 38.86 263.373 38.86C264.413 38.86 265.353 39.0933 266.193 39.56C267.033 40.0133 267.693 40.6667 268.173 41.52C268.666 42.3733 268.913 43.3667 268.913 44.5C268.913 45.6333 268.659 46.6333 268.153 47.5C267.659 48.3533 266.986 49.0133 266.133 49.48C265.279 49.9467 264.333 50.18 263.293 50.18ZM263.293 48.58C263.946 48.58 264.559 48.4267 265.133 48.12C265.706 47.8133 266.166 47.3533 266.513 46.74C266.873 46.1267 267.053 45.38 267.053 44.5C267.053 43.62 266.879 42.8733 266.533 42.26C266.186 41.6467 265.733 41.1933 265.173 40.9C264.613 40.5933 264.006 40.44 263.353 40.44C262.686 40.44 262.073 40.5933 261.513 40.9C260.966 41.1933 260.526 41.6467 260.193 42.26C259.859 42.8733 259.693 43.62 259.693 44.5C259.693 45.3933 259.853 46.1467 260.173 46.76C260.506 47.3733 260.946 47.8333 261.493 48.14C262.039 48.4333 262.639 48.58 263.293 48.58ZM276.086 50.18C275.059 50.18 274.126 49.9467 273.286 49.48C272.459 49.0133 271.806 48.3533 271.326 47.5C270.859 46.6333 270.626 45.6333 270.626 44.5C270.626 43.38 270.866 42.3933 271.346 41.54C271.839 40.6733 272.506 40.0133 273.346 39.56C274.186 39.0933 275.126 38.86 276.166 38.86C277.206 38.86 278.146 39.0933 278.986 39.56C279.826 40.0133 280.486 40.6667 280.966 41.52C281.459 42.3733 281.706 43.3667 281.706 44.5C281.706 45.6333 281.452 46.6333 280.946 47.5C280.452 48.3533 279.779 49.0133 278.926 49.48C278.072 49.9467 277.126 50.18 276.086 50.18ZM276.086 48.58C276.739 48.58 277.352 48.4267 277.926 48.12C278.499 47.8133 278.959 47.3533 279.306 46.74C279.666 46.1267 279.846 45.38 279.846 44.5C279.846 43.62 279.672 42.8733 279.326 42.26C278.979 41.6467 278.526 41.1933 277.966 40.9C277.406 40.5933 276.799 40.44 276.146 40.44C275.479 40.44 274.866 40.5933 274.306 40.9C273.759 41.1933 273.319 41.6467 272.986 42.26C272.652 42.8733 272.486 43.62 272.486 44.5C272.486 45.3933 272.646 46.1467 272.966 46.76C273.299 47.3733 273.739 47.8333 274.286 48.14C274.832 48.4333 275.432 48.58 276.086 48.58ZM288.619 38.86C289.565 38.86 290.392 39.0667 291.099 39.48C291.819 39.8933 292.352 40.4133 292.699 41.04V39.04H294.539V50.24C294.539 51.24 294.325 52.1267 293.899 52.9C293.472 53.6867 292.859 54.3 292.059 54.74C291.272 55.18 290.352 55.4 289.299 55.4C287.859 55.4 286.659 55.06 285.699 54.38C284.739 53.7 284.172 52.7733 283.999 51.6H285.799C285.999 52.2667 286.412 52.8 287.039 53.2C287.665 53.6133 288.419 53.82 289.299 53.82C290.299 53.82 291.112 53.5067 291.739 52.88C292.379 52.2533 292.699 51.3733 292.699 50.24V47.94C292.339 48.58 291.805 49.1133 291.099 49.54C290.392 49.9667 289.565 50.18 288.619 50.18C287.645 50.18 286.759 49.94 285.959 49.46C285.172 48.98 284.552 48.3067 284.099 47.44C283.645 46.5733 283.419 45.5867 283.419 44.48C283.419 43.36 283.645 42.38 284.099 41.54C284.552 40.6867 285.172 40.0267 285.959 39.56C286.759 39.0933 287.645 38.86 288.619 38.86ZM292.699 44.5C292.699 43.6733 292.532 42.9533 292.199 42.34C291.865 41.7267 291.412 41.26 290.839 40.94C290.279 40.6067 289.659 40.44 288.979 40.44C288.299 40.44 287.679 40.6 287.119 40.92C286.559 41.24 286.112 41.7067 285.779 42.32C285.445 42.9333 285.279 43.6533 285.279 44.48C285.279 45.32 285.445 46.0533 285.779 46.68C286.112 47.2933 286.559 47.7667 287.119 48.1C287.679 48.42 288.299 48.58 288.979 48.58C289.659 48.58 290.279 48.42 290.839 48.1C291.412 47.7667 291.865 47.2933 292.199 46.68C292.532 46.0533 292.699 45.3267 292.699 44.5ZM299.434 35.2V50H297.614V35.2H299.434ZM312.536 44.1C312.536 44.4467 312.516 44.8133 312.476 45.2H303.716C303.783 46.28 304.149 47.1267 304.816 47.74C305.496 48.34 306.316 48.64 307.276 48.64C308.063 48.64 308.716 48.46 309.236 48.1C309.769 47.7267 310.143 47.2333 310.356 46.62H312.316C312.023 47.6733 311.436 48.5333 310.556 49.2C309.676 49.8533 308.583 50.18 307.276 50.18C306.236 50.18 305.303 49.9467 304.476 49.48C303.663 49.0133 303.023 48.3533 302.556 47.5C302.089 46.6333 301.856 45.6333 301.856 44.5C301.856 43.3667 302.083 42.3733 302.536 41.52C302.989 40.6667 303.623 40.0133 304.436 39.56C305.263 39.0933 306.209 38.86 307.276 38.86C308.316 38.86 309.236 39.0867 310.036 39.54C310.836 39.9933 311.449 40.62 311.876 41.42C312.316 42.2067 312.536 43.1 312.536 44.1ZM310.656 43.72C310.656 43.0267 310.503 42.4333 310.196 41.94C309.889 41.4333 309.469 41.0533 308.936 40.8C308.416 40.5333 307.836 40.4 307.196 40.4C306.276 40.4 305.489 40.6933 304.836 41.28C304.196 41.8667 303.829 42.68 303.736 43.72H310.656Z" fill="#c8c8c8"/>
<g clip-path="url(#clip0_1_27)">
<path d="M67.981 42.7646C67.981 41.2553 67.8585 40.1539 67.5935 39.0117H50.3586V45.824H60.4751C60.2712 47.517 59.1698 50.0665 56.7222 51.7797L56.6879 52.0078L62.1372 56.2293L62.5148 56.267C65.9821 53.0647 67.981 48.3532 67.981 42.7646" fill="#4285F4"/>
<path d="M50.3585 60.7134C55.3148 60.7134 59.4756 59.0817 62.5147 56.267L56.7221 51.7797C55.1721 52.8608 53.0916 53.6154 50.3585 53.6154C45.5042 53.6154 41.3842 50.4133 39.9155 45.9873L39.7003 46.0055L34.034 50.3908L33.9599 50.5968C36.9785 56.5933 43.179 60.7134 50.3585 60.7134Z" fill="#34A853"/>
<path d="M39.9156 45.9873C39.528 44.8451 39.3038 43.6212 39.3038 42.3567C39.3038 41.0921 39.528 39.8683 39.8952 38.7261L39.8849 38.4829L34.1476 34.0272L33.9599 34.1165C32.7157 36.6049 32.0019 39.3992 32.0019 42.3567C32.0019 45.3142 32.7157 48.1084 33.9599 50.5968L39.9156 45.9873" fill="#FBBC05"/>
<path d="M50.3586 31.0979C53.8055 31.0979 56.1306 32.5868 57.4565 33.8311L62.6371 28.7727C59.4554 25.8153 55.3148 24 50.3586 24C43.179 24 36.9785 28.12 33.9599 34.1165L39.8952 38.7261C41.3842 34.3001 45.5043 31.0979 50.3586 31.0979" fill="#EB4335"/>
</g>
<defs>
<filter id="filter0_d_1_27" x="0" y="0" width="349" height="82" filterUnits="userSpaceOnUse" color-interpolation-filters="sRGB">
<feFlood flood-opacity="0" result="BackgroundImageFix"/>
<feColorMatrix in="SourceAlpha" type="matrix" values="0 0 0 0 0 0 0 0 0 0 0 0 0 0 0 0 0 0 127 0" result="hardAlpha"/>
<feOffset/>
<feGaussianBlur stdDeviation="2.5"/>
<feComposite in2="hardAlpha" operator="out"/>
<feColorMatrix type="matrix" values="0 0 0 0 0 0 0 0 0 0 0 0 0 0 0 0 0 0 0.25 0"/>
<feBlend mode="normal" in2="BackgroundImageFix" result="effect1_dropShadow_1_27"/>
<feBlend mode="normal" in="SourceGraphic" in2="effect1_dropShadow_1_27" result="shape"/>
</filter>
<clipPath id="clip0_1_27">
<rect width="36" height="36.84" fill="white" transform="translate(32 24)"/>
</clipPath>
</defs>
</svg>
