<svg width="200" height="76" viewBox="0 0 306 76" fill="none" xmlns="http://www.w3.org/2000/svg">
<path d="M103.208 18.5455C103.208 22.2273 102.543 25.4091 101.213 28.0909C99.8839 30.7727 98.06 32.8409 95.7419 34.2955C93.4237 35.75 90.7759 36.4773 87.7987 36.4773C84.8214 36.4773 82.1737 35.75 79.8555 34.2955C77.5373 32.8409 75.7134 30.7727 74.3839 28.0909C73.0543 25.4091 72.3896 22.2273 72.3896 18.5455C72.3896 14.8636 73.0543 11.6818 74.3839 9C75.7134 6.31818 77.5373 4.25 79.8555 2.79545C82.1737 1.34091 84.8214 0.613635 87.7987 0.613635C90.7759 0.613635 93.4237 1.34091 95.7419 2.79545C98.06 4.25 99.8839 6.31818 101.213 9C102.543 11.6818 103.208 14.8636 103.208 18.5455ZM99.1169 18.5455C99.1169 15.5227 98.6112 12.9716 97.5998 10.892C96.5998 8.8125 95.2418 7.23864 93.5259 6.17045C91.8214 5.10227 89.9123 4.56818 87.7987 4.56818C85.685 4.56818 83.7703 5.10227 82.0543 6.17045C80.3498 7.23864 78.9918 8.8125 77.9805 10.892C76.9805 12.9716 76.4805 15.5227 76.4805 18.5455C76.4805 21.5682 76.9805 24.1193 77.9805 26.1989C78.9918 28.2784 80.3498 29.8523 82.0543 30.9205C83.7703 31.9886 85.685 32.5227 87.7987 32.5227C89.9123 32.5227 91.8214 31.9886 93.5259 30.9205C95.2418 29.8523 96.5998 28.2784 97.5998 26.1989C98.6112 24.1193 99.1169 21.5682 99.1169 18.5455ZM121.05 45.8182V9.81818H124.937V13.9773H125.414C125.709 13.5227 126.118 12.9432 126.641 12.2386C127.175 11.5227 127.937 10.8864 128.925 10.3295C129.925 9.76136 131.278 9.47727 132.982 9.47727C135.187 9.47727 137.13 10.0284 138.812 11.1307C140.493 12.233 141.806 13.7955 142.749 15.8182C143.692 17.8409 144.164 20.2273 144.164 22.9773C144.164 25.75 143.692 28.1534 142.749 30.1875C141.806 32.2102 140.499 33.7784 138.829 34.892C137.158 35.9943 135.232 36.5455 133.05 36.5455C131.368 36.5455 130.022 36.267 129.01 35.7102C127.999 35.142 127.221 34.5 126.675 33.7841C126.13 33.0568 125.709 32.4545 125.414 31.9773H125.073V45.8182H121.05ZM125.005 22.9091C125.005 24.8864 125.295 26.6307 125.874 28.142C126.454 29.642 127.3 30.8182 128.414 31.6705C129.528 32.5114 130.891 32.9318 132.505 32.9318C134.187 32.9318 135.59 32.4886 136.715 31.6023C137.851 30.7045 138.704 29.5 139.272 27.9886C139.851 26.4659 140.141 24.7727 140.141 22.9091C140.141 21.0682 139.857 19.4091 139.289 17.9318C138.732 16.4432 137.885 15.267 136.749 14.4034C135.624 13.5284 134.209 13.0909 132.505 13.0909C130.868 13.0909 129.493 13.5057 128.38 14.3352C127.266 15.1534 126.425 16.3011 125.857 17.7784C125.289 19.2443 125.005 20.9545 125.005 22.9091ZM172.558 36.5455C170.035 36.5455 167.859 35.9886 166.029 34.875C164.211 33.75 162.808 32.1818 161.819 30.1705C160.842 28.1477 160.353 25.7955 160.353 23.1136C160.353 20.4318 160.842 18.0682 161.819 16.0227C162.808 13.9659 164.183 12.3636 165.944 11.2159C167.717 10.0568 169.785 9.47727 172.148 9.47727C173.512 9.47727 174.859 9.70455 176.188 10.1591C177.518 10.6136 178.728 11.3523 179.819 12.375C180.91 13.3864 181.779 14.7273 182.427 16.3977C183.075 18.0682 183.398 20.125 183.398 22.5682V24.2727H163.217V20.7955H179.308C179.308 19.3182 179.012 18 178.421 16.8409C177.842 15.6818 177.012 14.767 175.933 14.0966C174.864 13.4261 173.603 13.0909 172.148 13.0909C170.546 13.0909 169.16 13.4886 167.989 14.2841C166.83 15.0682 165.938 16.0909 165.313 17.3523C164.688 18.6136 164.376 19.9659 164.376 21.4091V23.7273C164.376 25.7045 164.717 27.3807 165.398 28.7557C166.092 30.1193 167.052 31.1591 168.279 31.875C169.506 32.5795 170.933 32.9318 172.558 32.9318C173.614 32.9318 174.569 32.7841 175.421 32.4886C176.285 32.1818 177.029 31.7273 177.654 31.125C178.279 30.5114 178.762 29.75 179.103 28.8409L182.989 29.9318C182.58 31.25 181.893 32.4091 180.927 33.4091C179.961 34.3977 178.768 35.1705 177.347 35.7273C175.927 36.2727 174.33 36.5455 172.558 36.5455ZM204.82 20.25V36H200.798V9.81818H204.684V13.9091H205.025C205.639 12.5795 206.57 11.5114 207.82 10.7045C209.07 9.88636 210.684 9.47727 212.661 9.47727C214.434 9.47727 215.985 9.84091 217.315 10.5682C218.644 11.2841 219.678 12.375 220.417 13.8409C221.156 15.2955 221.525 17.1364 221.525 19.3636V36H217.502V19.6364C217.502 17.5795 216.968 15.9773 215.9 14.8295C214.832 13.6705 213.366 13.0909 211.502 13.0909C210.218 13.0909 209.07 13.3693 208.059 13.9261C207.059 14.483 206.269 15.2955 205.69 16.3636C205.11 17.4318 204.82 18.7273 204.82 20.25ZM0.579884 75V57.5455H6.47761C7.84125 57.5455 8.96057 57.7784 9.83557 58.2443C10.7106 58.7045 11.3583 59.3381 11.7787 60.1449C12.1992 60.9517 12.4094 61.8693 12.4094 62.8977C12.4094 63.9261 12.1992 64.8381 11.7787 65.6335C11.3583 66.429 10.7134 67.054 9.84409 67.5085C8.97477 67.9574 7.86398 68.1818 6.5117 68.1818H1.73897V66.2727H6.44352C7.37534 66.2727 8.12534 66.1364 8.69352 65.8636C9.26738 65.5909 9.68216 65.2045 9.93784 64.7045C10.1992 64.1989 10.3299 63.5966 10.3299 62.8977C10.3299 62.1989 10.1992 61.5881 9.93784 61.0653C9.67648 60.5426 9.25886 60.1392 8.685 59.8551C8.11113 59.5653 7.35261 59.4205 6.40943 59.4205H2.69352V75H0.579884ZM8.79579 67.1591L13.0912 75H10.6367L6.40943 67.1591H8.79579ZM26.6467 75.2727C25.3854 75.2727 24.2973 74.9943 23.3825 74.4375C22.4734 73.875 21.7717 73.0909 21.2774 72.0852C20.7888 71.0739 20.5445 69.8977 20.5445 68.5568C20.5445 67.2159 20.7888 66.0341 21.2774 65.0114C21.7717 63.983 22.4592 63.1818 23.3399 62.608C24.2263 62.0284 25.2604 61.7386 26.4422 61.7386C27.124 61.7386 27.7973 61.8523 28.4621 62.0795C29.1268 62.3068 29.732 62.6761 30.2774 63.1875C30.8229 63.6932 31.2575 64.3636 31.5814 65.1989C31.9053 66.0341 32.0672 67.0625 32.0672 68.2841V69.1364H21.9763V67.3977H30.0217C30.0217 66.6591 29.874 66 29.5785 65.4205C29.2888 64.8409 28.874 64.3835 28.3342 64.0483C27.8001 63.7131 27.1695 63.5455 26.4422 63.5455C25.641 63.5455 24.9479 63.7443 24.3626 64.142C23.7831 64.5341 23.3371 65.0455 23.0246 65.6761C22.7121 66.3068 22.5558 66.983 22.5558 67.7045V68.8636C22.5558 69.8523 22.7263 70.6903 23.0672 71.3778C23.4138 72.0597 23.8939 72.5795 24.5075 72.9375C25.1212 73.2898 25.8342 73.4659 26.6467 73.4659C27.1751 73.4659 27.6524 73.392 28.0785 73.2443C28.5104 73.0909 28.8825 72.8636 29.195 72.5625C29.5075 72.2557 29.749 71.875 29.9195 71.4205L31.8626 71.9659C31.6581 72.625 31.3143 73.2045 30.8314 73.7045C30.3484 74.1989 29.7518 74.5852 29.0416 74.8636C28.3314 75.1364 27.5331 75.2727 26.6467 75.2727ZM46.5964 61.9091V63.6136H39.5396V61.9091H46.5964ZM41.6532 75V60.1023C41.6532 59.3523 41.8293 58.7273 42.1816 58.2273C42.5339 57.7273 42.9913 57.3523 43.5538 57.1023C44.1163 56.8523 44.71 56.7273 45.335 56.7273C45.8293 56.7273 46.2328 56.767 46.5453 56.8466C46.8578 56.9261 47.0907 57 47.2441 57.0682L46.6646 58.8068C46.5623 58.7727 46.4203 58.7301 46.2384 58.679C46.0623 58.6278 45.8293 58.6023 45.5396 58.6023C44.8748 58.6023 44.3947 58.7699 44.0992 59.1051C43.8095 59.4403 43.6646 59.9318 43.6646 60.5795V75H41.6532ZM60.0049 75.2727C58.7435 75.2727 57.6554 74.9943 56.7406 74.4375C55.8316 73.875 55.1299 73.0909 54.6355 72.0852C54.1469 71.0739 53.9026 69.8977 53.9026 68.5568C53.9026 67.2159 54.1469 66.0341 54.6355 65.0114C55.1299 63.983 55.8174 63.1818 56.698 62.608C57.5844 62.0284 58.6185 61.7386 59.8003 61.7386C60.4821 61.7386 61.1554 61.8523 61.8202 62.0795C62.485 62.3068 63.0901 62.6761 63.6355 63.1875C64.181 63.6932 64.6156 64.3636 64.9395 65.1989C65.2634 66.0341 65.4253 67.0625 65.4253 68.2841V69.1364H55.3344V67.3977H63.3799C63.3799 66.6591 63.2321 66 62.9367 65.4205C62.6469 64.8409 62.2321 64.3835 61.6924 64.0483C61.1583 63.7131 60.5276 63.5455 59.8003 63.5455C58.9992 63.5455 58.306 63.7443 57.7208 64.142C57.1412 64.5341 56.6952 65.0455 56.3827 65.6761C56.0702 66.3068 55.9139 66.983 55.9139 67.7045V68.8636C55.9139 69.8523 56.0844 70.6903 56.4253 71.3778C56.7719 72.0597 57.252 72.5795 57.8656 72.9375C58.4793 73.2898 59.1924 73.4659 60.0049 73.4659C60.5333 73.4659 61.0105 73.392 61.4367 73.2443C61.8685 73.0909 62.2406 72.8636 62.5531 72.5625C62.8656 72.2557 63.1071 71.875 63.2776 71.4205L65.2208 71.9659C65.0162 72.625 64.6725 73.2045 64.1895 73.7045C63.7066 74.1989 63.11 74.5852 62.3997 74.8636C61.6895 75.1364 60.8912 75.2727 60.0049 75.2727ZM74.125 75V61.9091H76.0681V63.8864H76.2045C76.4431 63.2386 76.875 62.7131 77.5 62.3097C78.125 61.9062 78.8295 61.7045 79.6136 61.7045C79.7613 61.7045 79.946 61.7074 80.1676 61.7131C80.3892 61.7187 80.5568 61.7273 80.6704 61.7386V63.7841C80.6022 63.767 80.446 63.7415 80.2017 63.7074C79.963 63.6676 79.7102 63.6477 79.4431 63.6477C78.8068 63.6477 78.2386 63.7812 77.7386 64.0483C77.2443 64.3097 76.8522 64.6733 76.5625 65.1392C76.2784 65.5994 76.1363 66.125 76.1363 66.7159V75H74.125ZM93.7849 75.2727C92.5235 75.2727 91.4354 74.9943 90.5206 74.4375C89.6116 73.875 88.9099 73.0909 88.4155 72.0852C87.9269 71.0739 87.6826 69.8977 87.6826 68.5568C87.6826 67.2159 87.9269 66.0341 88.4155 65.0114C88.9099 63.983 89.5974 63.1818 90.478 62.608C91.3644 62.0284 92.3985 61.7386 93.5803 61.7386C94.2621 61.7386 94.9354 61.8523 95.6002 62.0795C96.265 62.3068 96.8701 62.6761 97.4155 63.1875C97.961 63.6932 98.3956 64.3636 98.7195 65.1989C99.0434 66.0341 99.2053 67.0625 99.2053 68.2841V69.1364H89.1144V67.3977H97.1599C97.1599 66.6591 97.0121 66 96.7167 65.4205C96.4269 64.8409 96.0121 64.3835 95.4724 64.0483C94.9383 63.7131 94.3076 63.5455 93.5803 63.5455C92.7792 63.5455 92.086 63.7443 91.5008 64.142C90.9212 64.5341 90.4752 65.0455 90.1627 65.6761C89.8502 66.3068 89.6939 66.983 89.6939 67.7045V68.8636C89.6939 69.8523 89.8644 70.6903 90.2053 71.3778C90.5519 72.0597 91.032 72.5795 91.6456 72.9375C92.2593 73.2898 92.9724 73.4659 93.7849 73.4659C94.3133 73.4659 94.7905 73.392 95.2167 73.2443C95.6485 73.0909 96.0206 72.8636 96.3331 72.5625C96.6456 72.2557 96.8871 71.875 97.0576 71.4205L99.0008 71.9659C98.7962 72.625 98.4525 73.2045 97.9695 73.7045C97.4866 74.1989 96.89 74.5852 96.1797 74.8636C95.4695 75.1364 94.6712 75.2727 93.7849 75.2727ZM109.916 67.125V75H107.905V61.9091H109.848V63.9545H110.019C110.325 63.2898 110.791 62.7557 111.416 62.3523C112.041 61.9432 112.848 61.7386 113.837 61.7386C114.723 61.7386 115.499 61.9205 116.163 62.2841C116.828 62.642 117.345 63.1875 117.715 63.9205C118.084 64.6477 118.269 65.5682 118.269 66.6818V75H116.257V66.8182C116.257 65.7898 115.99 64.9886 115.456 64.4148C114.922 63.8352 114.189 63.5455 113.257 63.5455C112.615 63.5455 112.041 63.6847 111.536 63.9631C111.036 64.2415 110.641 64.6477 110.351 65.1818C110.061 65.7159 109.916 66.3636 109.916 67.125ZM132.902 75.2727C131.675 75.2727 130.618 74.983 129.732 74.4034C128.845 73.8239 128.164 73.0256 127.686 72.0085C127.209 70.9915 126.97 69.8295 126.97 68.5227C126.97 67.1932 127.215 66.0199 127.703 65.0028C128.198 63.9801 128.885 63.1818 129.766 62.608C130.652 62.0284 131.686 61.7386 132.868 61.7386C133.789 61.7386 134.618 61.9091 135.357 62.25C136.095 62.5909 136.701 63.0682 137.172 63.6818C137.644 64.2955 137.936 65.0114 138.05 65.8295H136.039C135.885 65.233 135.544 64.7045 135.016 64.2443C134.493 63.7784 133.789 63.5455 132.902 63.5455C132.118 63.5455 131.431 63.75 130.84 64.1591C130.254 64.5625 129.797 65.1335 129.468 65.8722C129.144 66.6051 128.982 67.4659 128.982 68.4545C128.982 69.4659 129.141 70.3466 129.459 71.0966C129.783 71.8466 130.237 72.429 130.823 72.8438C131.414 73.2585 132.107 73.4659 132.902 73.4659C133.425 73.4659 133.899 73.375 134.326 73.1932C134.752 73.0114 135.112 72.75 135.408 72.4091C135.703 72.0682 135.914 71.6591 136.039 71.1818H138.05C137.936 71.9545 137.655 72.6506 137.206 73.2699C136.763 73.8835 136.175 74.3722 135.442 74.7358C134.715 75.0938 133.868 75.2727 132.902 75.2727ZM152.119 75.2727C150.858 75.2727 149.769 74.9943 148.855 74.4375C147.946 73.875 147.244 73.0909 146.75 72.0852C146.261 71.0739 146.017 69.8977 146.017 68.5568C146.017 67.2159 146.261 66.0341 146.75 65.0114C147.244 63.983 147.931 63.1818 148.812 62.608C149.698 62.0284 150.733 61.7386 151.914 61.7386C152.596 61.7386 153.269 61.8523 153.934 62.0795C154.599 62.3068 155.204 62.6761 155.75 63.1875C156.295 63.6932 156.73 64.3636 157.054 65.1989C157.377 66.0341 157.539 67.0625 157.539 68.2841V69.1364H147.448V67.3977H155.494C155.494 66.6591 155.346 66 155.051 65.4205C154.761 64.8409 154.346 64.3835 153.806 64.0483C153.272 63.7131 152.642 63.5455 151.914 63.5455C151.113 63.5455 150.42 63.7443 149.835 64.142C149.255 64.5341 148.809 65.0455 148.497 65.6761C148.184 66.3068 148.028 66.983 148.028 67.7045V68.8636C148.028 69.8523 148.198 70.6903 148.539 71.3778C148.886 72.0597 149.366 72.5795 149.98 72.9375C150.593 73.2898 151.306 73.4659 152.119 73.4659C152.647 73.4659 153.125 73.392 153.551 73.2443C153.983 73.0909 154.355 72.8636 154.667 72.5625C154.98 72.2557 155.221 71.875 155.392 71.4205L157.335 71.9659C157.13 72.625 156.787 73.2045 156.304 73.7045C155.821 74.1989 155.224 74.5852 154.514 74.8636C153.804 75.1364 153.005 75.2727 152.119 75.2727ZM178.902 57.5455H181.424L187.356 72.0341H187.561L193.493 57.5455H196.015V75H194.038V61.7386H193.868L188.413 75H186.504L181.049 61.7386H180.879V75H178.902V57.5455ZM209.473 75.3068C208.643 75.3068 207.89 75.1506 207.214 74.8381C206.538 74.5199 206.001 74.0625 205.604 73.4659C205.206 72.8636 205.007 72.1364 205.007 71.2841C205.007 70.5341 205.155 69.9261 205.45 69.4602C205.746 68.9886 206.14 68.6193 206.635 68.3523C207.129 68.0852 207.675 67.8864 208.271 67.7557C208.873 67.6193 209.479 67.5114 210.086 67.4318C210.882 67.3295 211.527 67.2528 212.021 67.2017C212.521 67.1449 212.885 67.0511 213.112 66.9205C213.345 66.7898 213.461 66.5625 213.461 66.2386V66.1705C213.461 65.3295 213.231 64.6761 212.771 64.2102C212.317 63.7443 211.626 63.5114 210.7 63.5114C209.74 63.5114 208.987 63.7216 208.442 64.142C207.896 64.5625 207.513 65.0114 207.291 65.4886L205.382 64.8068C205.723 64.0114 206.177 63.392 206.746 62.9489C207.319 62.5 207.944 62.1875 208.621 62.0114C209.302 61.8295 209.973 61.7386 210.632 61.7386C211.052 61.7386 211.535 61.7898 212.081 61.892C212.632 61.9886 213.163 62.1903 213.675 62.4972C214.192 62.804 214.621 63.267 214.961 63.8864C215.302 64.5057 215.473 65.3352 215.473 66.375V75H213.461V73.2273H213.359C213.223 73.5114 212.996 73.8153 212.677 74.1392C212.359 74.4631 211.936 74.7386 211.408 74.9659C210.879 75.1932 210.234 75.3068 209.473 75.3068ZM209.78 73.5C210.575 73.5 211.246 73.3438 211.791 73.0312C212.342 72.7188 212.757 72.3153 213.035 71.821C213.319 71.3267 213.461 70.8068 213.461 70.2614V68.4205C213.376 68.5227 213.189 68.6165 212.899 68.7017C212.615 68.7812 212.285 68.8523 211.91 68.9148C211.541 68.9716 211.18 69.0227 210.828 69.0682C210.481 69.108 210.2 69.142 209.984 69.1705C209.461 69.2386 208.973 69.3494 208.518 69.5028C208.069 69.6506 207.706 69.875 207.427 70.1761C207.155 70.4716 207.018 70.875 207.018 71.3864C207.018 72.0852 207.277 72.6136 207.794 72.9716C208.317 73.3239 208.979 73.5 209.78 73.5ZM230.477 61.9091V63.6136H223.693V61.9091H230.477ZM225.67 58.7727H227.682V71.25C227.682 71.8182 227.764 72.2443 227.929 72.5284C228.099 72.8068 228.315 72.9943 228.577 73.0909C228.844 73.1818 229.125 73.2273 229.42 73.2273C229.642 73.2273 229.824 73.2159 229.966 73.1932C230.108 73.1648 230.222 73.142 230.307 73.125L230.716 74.9318C230.579 74.983 230.389 75.0341 230.145 75.0852C229.901 75.142 229.591 75.1705 229.216 75.1705C228.648 75.1705 228.091 75.0483 227.545 74.804C227.006 74.5597 226.557 74.1875 226.199 73.6875C225.847 73.1875 225.67 72.5568 225.67 71.7955V58.7727ZM244.491 75.2727C243.229 75.2727 242.141 74.9943 241.227 74.4375C240.317 73.875 239.616 73.0909 239.121 72.0852C238.633 71.0739 238.389 69.8977 238.389 68.5568C238.389 67.2159 238.633 66.0341 239.121 65.0114C239.616 63.983 240.303 63.1818 241.184 62.608C242.07 62.0284 243.104 61.7386 244.286 61.7386C244.968 61.7386 245.641 61.8523 246.306 62.0795C246.971 62.3068 247.576 62.6761 248.121 63.1875C248.667 63.6932 249.102 64.3636 249.425 65.1989C249.749 66.0341 249.911 67.0625 249.911 68.2841V69.1364H239.82V67.3977H247.866C247.866 66.6591 247.718 66 247.423 65.4205C247.133 64.8409 246.718 64.3835 246.178 64.0483C245.644 63.7131 245.014 63.5455 244.286 63.5455C243.485 63.5455 242.792 63.7443 242.207 64.142C241.627 64.5341 241.181 65.0455 240.869 65.6761C240.556 66.3068 240.4 66.983 240.4 67.7045V68.8636C240.4 69.8523 240.57 70.6903 240.911 71.3778C241.258 72.0597 241.738 72.5795 242.352 72.9375C242.965 73.2898 243.678 73.4659 244.491 73.4659C245.019 73.4659 245.496 73.392 245.923 73.2443C246.354 73.0909 246.727 72.8636 247.039 72.5625C247.352 72.2557 247.593 71.875 247.764 71.4205L249.707 71.9659C249.502 72.625 249.158 73.2045 248.675 73.7045C248.192 74.1989 247.596 74.5852 246.886 74.8636C246.175 75.1364 245.377 75.2727 244.491 75.2727ZM258.611 75V61.9091H260.554V63.8864H260.69C260.929 63.2386 261.361 62.7131 261.986 62.3097C262.611 61.9062 263.315 61.7045 264.1 61.7045C264.247 61.7045 264.432 61.7074 264.654 61.7131C264.875 61.7187 265.043 61.7273 265.156 61.7386V63.7841C265.088 63.767 264.932 63.7415 264.688 63.7074C264.449 63.6676 264.196 63.6477 263.929 63.6477C263.293 63.6477 262.725 63.7812 262.225 64.0483C261.73 64.3097 261.338 64.6733 261.048 65.1392C260.764 65.5994 260.622 66.125 260.622 66.7159V75H258.611ZM273.181 75V61.9091H275.192V75H273.181ZM274.203 59.7273C273.811 59.7273 273.473 59.5938 273.189 59.3267C272.911 59.0597 272.772 58.7386 272.772 58.3636C272.772 57.9886 272.911 57.6676 273.189 57.4006C273.473 57.1335 273.811 57 274.203 57C274.595 57 274.931 57.1335 275.209 57.4006C275.493 57.6676 275.635 57.9886 275.635 58.3636C275.635 58.7386 275.493 59.0597 275.209 59.3267C274.931 59.5938 274.595 59.7273 274.203 59.7273ZM288.368 75.3068C287.539 75.3068 286.786 75.1506 286.11 74.8381C285.434 74.5199 284.897 74.0625 284.499 73.4659C284.101 72.8636 283.902 72.1364 283.902 71.2841C283.902 70.5341 284.05 69.9261 284.345 69.4602C284.641 68.9886 285.036 68.6193 285.53 68.3523C286.024 68.0852 286.57 67.8864 287.166 67.7557C287.769 67.6193 288.374 67.5114 288.982 67.4318C289.777 67.3295 290.422 67.2528 290.916 67.2017C291.416 67.1449 291.78 67.0511 292.007 66.9205C292.24 66.7898 292.357 66.5625 292.357 66.2386V66.1705C292.357 65.3295 292.127 64.6761 291.666 64.2102C291.212 63.7443 290.522 63.5114 289.595 63.5114C288.635 63.5114 287.882 63.7216 287.337 64.142C286.791 64.5625 286.408 65.0114 286.186 65.4886L284.277 64.8068C284.618 64.0114 285.073 63.392 285.641 62.9489C286.215 62.5 286.84 62.1875 287.516 62.0114C288.198 61.8295 288.868 61.7386 289.527 61.7386C289.948 61.7386 290.431 61.7898 290.976 61.892C291.527 61.9886 292.059 62.1903 292.57 62.4972C293.087 62.804 293.516 63.267 293.857 63.8864C294.198 64.5057 294.368 65.3352 294.368 66.375V75H292.357V73.2273H292.255C292.118 73.5114 291.891 73.8153 291.573 74.1392C291.255 74.4631 290.831 74.7386 290.303 74.9659C289.774 75.1932 289.13 75.3068 288.368 75.3068ZM288.675 73.5C289.47 73.5 290.141 73.3438 290.686 73.0312C291.237 72.7188 291.652 72.3153 291.931 71.821C292.215 71.3267 292.357 70.8068 292.357 70.2614V68.4205C292.272 68.5227 292.084 68.6165 291.794 68.7017C291.51 68.7812 291.181 68.8523 290.806 68.9148C290.436 68.9716 290.076 69.0227 289.723 69.0682C289.377 69.108 289.095 69.142 288.88 69.1705C288.357 69.2386 287.868 69.3494 287.414 69.5028C286.965 69.6506 286.601 69.875 286.323 70.1761C286.05 70.4716 285.914 70.875 285.914 71.3864C285.914 72.0852 286.172 72.6136 286.689 72.9716C287.212 73.3239 287.874 73.5 288.675 73.5ZM305.691 57.5455V75H303.679V57.5455H305.691Z" fill="#c8c8c8"/>
</svg>
